<?xml version="1.0" encoding="UTF-8" standalone="no"?>
<!-- Created with Inkscape (http://www.inkscape.org/) -->
<svg xmlns:dc="http://purl.org/dc/elements/1.1/" xmlns:cc="http://creativecommons.org/ns#" xmlns:rdf="http://www.w3.org/1999/02/22-rdf-syntax-ns#" xmlns:svg="http://www.w3.org/2000/svg" xmlns="http://www.w3.org/2000/svg" xmlns:inkscape="http://www.inkscape.org/namespaces/inkscape" xmlns:sodipodi="http://sodipodi.sourceforge.net/DTD/sodipodi-0.dtd" xmlns:ns1="http://sozi.baierouge.fr" version="1.1" width="80" height="64" id="svg2" inkscape:version="0.91 r13725" xmlns:xlink="http://www.w3.org/1999/xlink">
  <defs id="defs4"/>
  <metadata id="metadata7">
    <rdf:RDF>
      <cc:Work rdf:about="">
        <dc:format>image/svg+xml</dc:format>
        <dc:type rdf:resource="http://purl.org/dc/dcmitype/StillImage"/>
        <dc:title/>
      </cc:Work>
    </rdf:RDF>
  </metadata>
  <g transform="translate(-69.096475,-383.96608)" id="layer1">
    <g transform="translate(0.025045,24.246749)" id="g3007">
      <path d="m 85.07143,419.71933 0,-4 -4,0 -4,0 0,-4 0,-4 -4,0 -4,0 0,-4 0,-4 8,0 8,0 0,-4 0,-4 8,0 8,0 0,-4 0,-4 4,0 4,0 0,-4 0,-4 -4,0 -4,0 0,-4 0,-4 4,0 4,0 0,-4 0,-4 4,0 4,0 0,12 0,12 4,0 4,0 0,4 0,4 12,0 12,0 0,8 0,8 -4,0 -4,0 0,8 0,8 -28,0 -28,0 0,-4 z" id="path3021" style="fill:#1db61d"/>
      <path d="m 85.07143,419.71933 0,-4 -4,0 -4,0 0,-4 0,-4 -4,0 -4,0 0,-4 0,-4 8,0 8,0 0,-4 0,-4 8,0 8,0 0,-4 0,-4 4,0 4,0 0,-4 0,-4 -4,0 -4,0 0,-4 0,-4 8,0 8,0 0,8 0,8 4,0 4,0 0,4 0,4 12,0 12,0 0,8 0,8 -4,0 -4,0 0,8 0,8 -28,0 -28,0 0,-4 z" id="path3019" style="fill:#1d981d"/>
      <path d="m 85.07143,419.71933 0,-4 -4,0 -4,0 0,-4 0,-4 -4,0 -4,0 0,-4 0,-4 8,0 8,0 0,-4 0,-4 8,0 8,0 0,-4 0,-4 4,0 4,0 0,4 0,4 4,0 4,0 0,-4 0,-4 4,0 4,0 0,4 0,4 12,0 12,0 0,8 0,8 -4,0 -4,0 0,8 0,8 -28,0 -28,0 0,-4 z m 16,-48 0,-4 8,0 8,0 0,4 0,4 -8,0 -8,0 0,-4 z" id="path3017" style="fill:#4c472e"/>
      <path d="m 85.07143,419.71933 0,-4 -4,0 -4,0 0,-4 0,-4 -4,0 -4,0 0,-4 0,-4 4,0 4,0 0,4 0,4 4,0 4,0 0,-8 0,-8 4,0 4,0 0,4 0,4 4,0 4,0 0,-8 0,-8 4,0 4,0 0,4 0,4 16,0 16,0 0,4 0,4 4,0 4,0 0,4 0,4 -4,0 -4,0 0,4 0,4 -4,0 -4,0 0,4 0,4 -8,0 -8,0 0,-4 0,-4 -4,0 -4,0 0,4 0,4 -12,0 -12,0 0,-4 z m 8,-8 0,-4 -4,0 -4,0 0,4 0,4 4,0 4,0 0,-4 z m 16,-8 0,-4 -4,0 -4,0 0,4 0,4 4,0 4,0 0,-4 z m 32,0 0,-4 -4,0 -4,0 0,4 0,4 4,0 4,0 0,-4 z m -40,-32 0,-4 8,0 8,0 0,4 0,4 -8,0 -8,0 0,-4 z" id="path3015" style="fill:#009800"/>
      <path d="m 85.07143,419.71933 0,-4 -4,0 -4,0 0,-4 0,-4 -4,0 -4,0 0,-4 0,-4 4,0 4,0 0,4 0,4 4,0 4,0 0,-8 0,-8 4,0 4,0 0,4 0,4 4,0 4,0 0,-8 0,-8 4,0 4,0 0,4 0,4 16,0 16,0 0,4 0,4 4,0 4,0 0,4 0,4 -4,0 -4,0 0,4 0,4 -4,0 -4,0 0,4 0,4 -8,0 -8,0 0,-4 0,-4 -4,0 -4,0 0,4 0,4 -12,0 -12,0 0,-4 z m 8,-8 0,-4 -4,0 -4,0 0,4 0,4 4,0 4,0 0,-4 z m 16,-8 0,-4 -4,0 -4,0 0,4 0,4 4,0 4,0 0,-4 z m 32,0 0,-4 -4,0 -4,0 0,4 0,4 4,0 4,0 0,-4 z m -40,-32 0,-4 4,0 4,0 0,4 0,4 -4,0 -4,0 0,-4 z" id="path3013" style="fill:#007a00"/>
      <path d="m 85.07143,419.71933 0,-4 -4,0 -4,0 0,-4 0,-4 -4,0 -4,0 0,-4 0,-4 4,0 4,0 0,4 0,4 4,0 4,0 0,-8 0,-8 4,0 4,0 0,4 0,4 4,0 4,0 0,-8 0,-8 4,0 4,0 0,8 0,8 -4,0 -4,0 0,4 0,4 8,0 8,0 0,-8 0,-8 12,0 12,0 0,4 0,4 4,0 4,0 0,4 0,4 -4,0 -4,0 0,4 0,4 -4,0 -4,0 0,4 0,4 -8,0 -8,0 0,-4 0,-4 -4,0 -4,0 0,4 0,4 -12,0 -12,0 0,-4 z m 8,-8 0,-4 -4,0 -4,0 0,4 0,4 4,0 4,0 0,-4 z m 48,-8 0,-4 -4,0 -4,0 0,4 0,4 4,0 4,0 0,-4 z" id="path3011" style="fill:#2e291d"/>
      <path d="m 85.07143,419.71933 0,-4 -4,0 -4,0 0,-4 0,-4 -4,0 -4,0 0,-4 0,-4 4,0 4,0 0,4 0,4 4,0 4,0 0,4 0,4 8,0 8,0 0,-4 0,-4 8,0 8,0 0,-8 0,-8 4,0 4,0 0,8 0,8 8,0 8,0 0,4 0,4 -8,0 -8,0 0,4 0,4 -4,0 -4,0 0,-4 0,-4 -8,0 -8,0 0,4 0,4 -8,0 -8,0 0,-4 z m 40,-8 0,-4 -4,0 -4,0 0,4 0,4 4,0 4,0 0,-4 z m -40,-16 0,-4 4,0 4,0 0,4 0,4 -4,0 -4,0 0,-4 z m 48,0 0,-4 4,0 4,0 0,4 0,4 -4,0 -4,0 0,-4 z m -32,-8 0,-4 4,0 4,0 0,4 0,4 -4,0 -4,0 0,-4 z" id="path3009" style="fill:#2e2910"/>
    </g>
  </g>
</svg>
